PathFileType	4	(X/Y/Z)	P:\Projects\LMB_grand_challenge_database\project_only\opensim\experimental_data\SixthCompetition/DM_bouncy5_new.trc
DataRate	CameraRate	NumFrames	NumMarkers	Units	OrigDataRate	OrigDataStartFrame	OrigNumFrames
120	120	5	68	mm	120	171	342
Frame#	Time	Sternum			Neck			R_Shoulder			L_Shoulder			Xiphoid			Thoracic			R_Asis			L_Asis			R_Psis			L_Psis			Lumbar			R_Elbow			R_ElbowMedial			R_ShoulderAnterior			R_ShoulderPosterior			R_Wrist			R_Radius			R_Ulna			L_Elbow			L_ElbowMedial			L_ShoulderAnterior			L_ShoulderPosterior			L_Wrist			L_Ulna			L_Radius			L_Thigh_Superior			L_Thigh_Inferior			L_Thigh_Lateral			L_Knee_Lateral			L_Knee_Medial			L_Patella			L_Shank_Superior			L_Shank_Inferior			L_Shank_Lateral			L_Ankle_Lateral			L_Ankle_Medial			R_Thigh_Superior			R_Thigh_Inferior			R_Thigh_Lateral			R_Knee_Lateral			R_Knee_Medial			R_Patella			R_Shank_Superior			R_Shank_Inferior			R_Shank_Lateral			R_Ankle_Lateral			RankleMedial			R_Heel			R_Toe			R_Midfoot_Medial			R_Midfoot_Lateral			R_Hindfoot			R_Midfoot_Superior			R_ToeMedial			R_ToeLateral			L_Heel			L_Toe			L_Midfoot_Medial			L_Midfoot_Lateral			L_Hindfoot			L_Midfoot_Superior			L_ToeMedial			L_ToeLateral			Oglobal			Sacral			Xglobal			Yglobal			Zglobal			
		X1	Y1	Z1	X2	Y2	Z2	X3	Y3	Z3	X4	Y4	Z4	X5	Y5	Z5	X6	Y6	Z6	X7	Y7	Z7	X8	Y8	Z8	X9	Y9	Z9	X10	Y10	Z10	X11	Y11	Z11	X12	Y12	Z12	X13	Y13	Z13	X14	Y14	Z14	X15	Y15	Z15	X16	Y16	Z16	X17	Y17	Z17	X18	Y18	Z18	X19	Y19	Z19	X20	Y20	Z20	X21	Y21	Z21	X22	Y22	Z22	X23	Y23	Z23	X24	Y24	Z24	X25	Y25	Z25	X26	Y26	Z26	X27	Y27	Z27	X28	Y28	Z28	X29	Y29	Z29	X30	Y30	Z30	X31	Y31	Z31	X32	Y32	Z32	X33	Y33	Z33	X34	Y34	Z34	X35	Y35	Z35	X36	Y36	Z36	X37	Y37	Z37	X38	Y38	Z38	X39	Y39	Z39	X40	Y40	Z40	X41	Y41	Z41	X42	Y42	Z42	X43	Y43	Z43	X44	Y44	Z44	X45	Y45	Z45	X46	Y46	Z46	X47	Y47	Z47	X48	Y48	Z48	X49	Y49	Z49	X50	Y50	Z50	X51	Y51	Z51	X52	Y52	Z52	X53	Y53	Z53	X54	Y54	Z54	X55	Y55	Z55	X56	Y56	Z56	X57	Y57	Z57	X58	Y58	Z58	X59	Y59	Z59	X60	Y60	Z60	X61	Y61	Z61	X62	Y62	Z62	X63	Y63	Z63	X64	Y64	Z64	X65	Y65	Z65	X66	Y66	Z66	X67	Y67	Z67	X68	Y68	Z68	

172	2.283333	479.48	1379.24	224.85	324.083	1463.09	247.079	435.906	1386.5	401.069	388.879	1431.7	56.8085	488.245	1211.18	209.33	222.601	1285.35	225.457	394.282	985.79	336.088	391.578	989.04	59.5354	190.885	1038.38	231.667	190.102	1038.34	153.16	196.845	1087.36	195.042	448.709	1064.02	474.68	-0	0	0	-0	0	0	-0	0	0	572.006	814.48	429.141	569.783	830.88	387.052	525.796	810.908	440.987	304.223	1114.07	-69.50660000000001	-0	0	0	-0	0	0	-0	0	0	308.411	845.106	-103.791	272.297	872.172	-121.11	310.096	858.028	-57.8123	364.801	826.566	20.5222	469.724	625.521	46.6639	485.239	724.188	76.59529999999999	-0	0	0	-0	0	0	526.646	530.7910000000001	92.7488	430.887	478.818	41.213	286.785	250.453	48.7249	391.603	342.386	114.641	-0	0	0	-0	0	0	309.49	800.808	350.026	320.869	588.054	306.289	387.694	711.564	327.885	-0	0	0	-0	0	0	393.419	502.893	228.357	261.977	396.541	305.472	234.171	191.642	283.448	316.586	309.95	219.031	-0	0	0	-0	0	0	135.082	65.25660000000001	225.507	436.245	53.8225	223.849	356.139	32.3086	171.986	345.922	27.0388	288.692	236.135	28.2413	276.719	299.843	119.683	229.344	401.308	41.995	181.404	395.313	39.9634	272.836	170.435	170.287	108.094	444.16	49.5106	95.1263	364.676	62.4603	150.657	347.601	62.2857	37.4561	247.299	97.8806	49.4238	345.768	160.315	93.98820000000001	404.136	47.3588	140.982	400.195	46.1092	44.6674	-0	0	0	190.493	1038.36	192.414	-200	0	0	-0	0	200	-0	200	0	
173	2.291667	488.136	1379.81	224.469	332.783	1463.5	247.053	444.694	1387.44	400.491	396.533	1432.13	56.6902	497.084	1211.67	208.837	231.406	1285.68	225.879	403.293	986.274	336.281	399.733	989.699	59.0894	199.744	1038.97	232.214	198.645	1038.97	153.566	205.452	1088	195.578	460.98	1065.44	474.116	-0	0	0	-0	0	0	-0	0	0	587.788	817.923	426.692	585.0890000000001	834.544	384.985	541.8339999999999	813.813	439.323	306.775	1115.58	-68.98099999999999	-0	0	0	-0	0	0	-0	0	0	307.672	847.068	-104.986	271.538	874.384	-121.049	310.981	859.665	-59.5509	374.557	827.823	20.7966	481.783	627.88	48.5786	495.689	726.657	78.9113	-0	0	0	-0	0	0	538.831	534.526	95.13800000000001	445.329	479.337	42.536	311.288	244.445	48.3079	411.432	341.035	115.34	-0	0	0	-0	0	0	310.969	803.123	354.524	322.745	588.457	307.036	393.336	711.312	327.814	-0	0	0	-0	0	0	395.382	502.739	228.876	263.561	396.531	305.824	234.771	191.955	283.708	317.55	309.404	219.729	-0	0	0	-0	0	0	135.721	65.3723	226.027	436.289	53.4568	224.51	356.667	32.6332	171.926	346.738	27.2047	288.65	236.159	28.3169	276.779	300.031	119.756	229.526	401.405	42.0142	181.389	395.431	39.9516	272.846	198.527	158.639	107.02	477.692	51.3452	94.9988	397.642	60.2088	149.824	380.786	59.3226	36.5938	278.968	90.0223	48.3864	374.164	157.098	93.2071	437.288	46.5235	139.704	434.165	45.7737	43.9064	-0	0	0	199.195	1038.97	192.89	-200	0	0	-0	0	200	-0	200	0	
174	2.3	496.882	1380.08	223.937	341.676	1463.86	247.008	453.993	1388.19	400.218	404.163	1432.36	56.173	505.687	1211.77	208.48	240.104	1285.77	226.462	412.342	986.434	336.125	408.083	989.788	58.9743	208.563	1039.27	232.587	207.346	1039.38	154.021	214.263	1088.35	195.912	473.013	1066.53	473.646	-0	0	0	-0	0	0	-0	0	0	603.386	821.26	424.236	599.429	838.274	382.29	557.845	816.697	437.005	309.515	1116.98	-68.6317	-0	0	0	-0	0	0	-0	0	0	307.407	848.862	-106.084	271.03	876.497	-120.928	312.618	861.099	-60.7374	383.747	828.192	21.3712	492.816	629.765	51.0359	505.679	728.712	81.3823	-0	0	0	-0	0	0	550.3630000000001	537.472	97.7419	459.465	479.738	44.145	335.995	238.603	47.9419	430.972	339.141	115.804	-0	0	0	-0	0	0	317.222	803.71	355.62	325.523	588.069	307.459	399.029	710.751	328.138	-0	0	0	-0	0	0	397.304	501.803	229.324	265.184	397.116	306.447	235.24	192.24	284.004	318.2	309.878	219.639	-0	0	0	-0	0	0	135.797	65.70650000000001	226.262	436.438	53.2102	224.83	356.619	32.6292	171.861	346.772	26.8044	288.573	236.212	28.2738	276.771	300.492	119.764	229.826	401.146	41.6046	181.073	395.401	39.963	272.842	228.347	146.406	106.43	511.391	53.8645	94.3678	432.307	57.8016	147.872	415.331	57.3681	34.6569	310.825	82.9413	47.2644	402.573	153.959	92.5134	471.268	46.4127	138.919	468.224	46.1162	42.8701	-0	0	0	207.954	1039.32	193.304	-200	0	0	-0	0	200	-0	200	0	
175	2.308333	505.52	1380.14	223.232	350.708	1464.07	246.807	463.368	1388.74	399.641	411.983	1432.35	55.9027	514.36	1211.66	207.96	248.964	1285.9	226.704	419.975	987.0170000000001	336.826	416.513	988.972	59.6329	216.529	1039.72	232.584	215.915	1039.71	154.348	222.575	1088.75	195.523	485.101	1067.45	473.321	-0	0	0	-0	0	0	-0	0	0	618.8869999999999	824.559	421.658	614.352	841.704	379.987	573.5940000000001	819.1	435.023	312.504	1118.25	-68.05289999999999	-0	0	0	-0	0	0	-0	0	0	307.559	850.472	-106.954	269.467	878.366	-118.744	312.965	862.3680000000001	-60.8087	392.899	828.954	21.4401	503.045	631.202	53.4699	515.246	730.451	83.6105	-0	0	0	-0	0	0	561.0069999999999	540.347	100.077	472.867	479.78	45.3327	361.466	233.376	47.3649	450.529	337.604	116.358	-0	0	0	-0	0	0	324.451	803.808	355.963	328.733	588.258	307.867	403.845	709.9880000000001	328.281	-0	0	0	-0	0	0	399.026	501.066	229.778	266.513	397.338	306.912	235.839	192.529	284.291	319.29	310.062	219.962	-0	0	0	-0	0	0	135.876	65.9586	226.521	436.061	53.4842	224.534	356.62	32.7765	171.868	346.869	26.7499	288.577	236.193	28.3217	276.863	300.638	119.862	230.04	402.138	41.9461	181.792	395.432	39.9502	272.933	257.847	134.929	105.76	545.16	56.7941	93.22239999999999	466.111	57.0963	147.424	449.654	56.6924	34.1321	343.189	76.1063	46.2618	431.865	152.01	92.67919999999999	505.331	47.1177	137.728	502.035	46.9735	41.7597	-0	0	0	216.222	1039.71	193.466	-200	0	0	-0	0	200	-0	200	0	
176	2.316667	514.351	1379.89	222.521	359.717	1463.97	246.662	472.375	1388.84	399.021	419.921	1432.16	55.313	522.987	1211.31	207.397	257.682	1285.79	227.038	428.158	986.944	337.405	425.081	988.55	59.8636	224.977	1039.83	232.745	224.619	1039.7	154.64	231.122	1088.83	195.526	496.895	1068.06	472.928	-0	0	0	-0	0	0	-0	0	0	634.074	827.734	419.28	628.705	844.729	377.704	589.241	821.1369999999999	433.051	315.672	1119.32	-67.6202	-0	0	0	-0	0	0	-0	0	0	308.016	852	-107.582	269.751	880.134	-118.345	314.283	863.456	-61.4666	401.958	828.975	21.4702	512.819	631.888	55.8345	524.704	731.7140000000001	85.87479999999999	-0	0	0	-0	0	0	571.356	542.878	102.395	485.867	479.452	46.7667	386.622	227.798	47.3175	470.062	335.851	116.865	-0	0	0	-0	0	0	331.436	803.932	356.877	332.994	588.508	308.768	408.748	709.36	328.063	-0	0	0	-0	0	0	400.986	500.296	230.289	268.473	397.392	307.533	236.463	192.758	284.663	319.481	310.011	220.295	-0	0	0	-0	0	0	135.921	66.2831	226.659	435.96	53.3155	224.389	356.603	32.9472	171.846	346.862	26.5086	288.534	236.237	28.2617	276.884	300.732	119.896	230.345	405.735	44.1797	183.779	395.47	39.971	272.999	287.786	124.184	105.128	578.085	60.0641	92.036	499.574	56.3903	146.572	483.2	55.6878	33.2695	376.004	69.87269999999999	45.4251	460.58	149.738	92.2396	539.053	48.3914	136.504	536.067	48.5882	40.5865	-0	0	0	224.798	1039.76	193.693	-200	0	0	-0	0	200	-0	200	0	
